<?xml version="1.0" encoding="UTF-8"?>
<svg id="_레이어_2" data-name="레이어 2" xmlns="http://www.w3.org/2000/svg" viewBox="0 0 157.71 175.35">
  <defs>
    <style>
      .cls-1 {
        fill: #060001;
        stroke-width: 0px;
      }
    </style>
  </defs>
  <g id="_레이어_1-2" data-name="레이어 1">
    <path class="cls-1" d="M157.49,120.95l-5.83-62.04c-1.27-13.5-12.61-23.83-26.17-23.83h-11.05C114.16,15.69,98.31,0,78.86,0s-35.31,15.69-35.58,35.09h-11.05c-13.56,0-24.9,10.32-26.17,23.83L.22,120.95c-2.74,29.18,20.21,54.4,49.52,54.4h58.22c29.31,0,52.27-25.21,49.52-54.4ZM78.86,14c11.74,0,21.31,9.41,21.58,21.09h-43.17c.27-11.67,9.85-21.09,21.58-21.09ZM78.86,98.84c-19.63,0-35.6-15.97-35.6-35.6,0-3.87,3.13-7,7-7s7,3.13,7,7c0,11.91,9.69,21.6,21.6,21.6s21.6-9.69,21.6-21.6c0-3.87,3.13-7,7-7s7,3.13,7,7c0,19.63-15.97,35.6-35.6,35.6Z"/>
  </g>
</svg>