<svg width="17" height="19" viewBox="0 0 17 19" fill="none" xmlns="http://www.w3.org/2000/svg">
<g id="SVG" clip-path="url(#clip0_74_1643)">
<path id="Vector" d="M16.5799 9.25049C16.5799 4.78043 12.9556 1.15674 8.48489 1.15674C4.01415 1.15674 0.389893 4.78043 0.389893 9.25049C0.389893 13.7205 4.01415 17.3442 8.48489 17.3442C12.9556 17.3442 16.5799 13.7205 16.5799 9.25049Z" fill="#333333"/>
<path id="Vector_2" d="M10.1715 5.87817C11.31 5.87817 12.2326 6.81495 12.2326 8.12644C12.2326 10.7494 9.42188 12.2482 8.48498 12.8103C7.54807 12.2482 4.7373 10.7494 4.7373 8.12644C4.7373 6.81495 5.67422 5.87817 6.79853 5.87817C7.4956 5.87817 8.11022 6.25289 8.48498 6.62759C8.85976 6.25289 9.47441 5.87817 10.1715 5.87817Z" fill="white"/>
</g>
<defs>
<clipPath id="clip0_74_1643">
<rect width="16.19" height="18" fill="white" transform="translate(0.389893 0.250488)"/>
</clipPath>
</defs>
</svg>
