<?xml version="1.0" encoding="iso-8859-1"?>
<!-- Uploaded to: SVG Repo, www.svgrepo.com, Generator: SVG Repo Mixer Tools -->
<svg version="1.1" id="Layer_1" xmlns="http://www.w3.org/2000/svg" xmlns:xlink="http://www.w3.org/1999/xlink" 
	 viewBox="0 0 512 512" xml:space="preserve">
<circle style="fill:#333333;" cx="256" cy="256" r="256"/>
<g>
	<rect x="113.424" y="376" style="fill:#E9EDF1;" width="285.144" height="8"/>
	<rect x="157.296" y="400" style="fill:#E9EDF1;" width="197.408" height="8"/>
</g>
<path style="fill:#DB2B42;" d="M348.376,100.32l-133.392,26.96v127.568c-7.16-4.88-16.392-7.824-26.56-7.824
	c-22.544,0-40.808,14.52-40.808,32.448s18.264,32.448,40.808,32.448s40.808-14.52,40.808-32.448v-98.808l103.624-16.32v74.792
	c-6.96-4.352-15.72-7.024-25.288-7.024c-22.544,0-40.808,14.52-40.808,32.448s18.264,32.448,40.808,32.448
	s40.808-14.52,40.808-32.448c0-1.208-0.136-2.472-0.264-3.616h0.264L348.376,100.32L348.376,100.32z"/>
</svg>