<svg width="21" height="21" viewBox="0 0 21 21" fill="none" xmlns="http://www.w3.org/2000/svg">
<g id="SVG" clip-path="url(#clip0_74_2191)">
<path id="Vector" d="M0.19043 10.0498C0.19043 15.5727 4.66758 20.0498 10.1904 20.0498C15.7133 20.0498 20.1904 15.5727 20.1904 10.0498C20.1904 4.52696 15.7133 0.0498047 10.1904 0.0498047C4.66758 0.0498047 0.19043 4.52696 0.19043 10.0498Z" fill="#03F2B2"/>
<path id="Vector_2" d="M10.1909 10.7166L5.57941 13.7911C5.54181 13.8162 5.49801 13.8306 5.45291 13.8327C5.40771 13.8349 5.36281 13.8248 5.32291 13.8034C5.28301 13.7821 5.24971 13.7503 5.22651 13.7115C5.20321 13.6727 5.19091 13.6284 5.19091 13.5831V6.5171C5.19091 6.4719 5.20321 6.4275 5.22651 6.3888C5.24971 6.35 5.28301 6.3182 5.32291 6.2969C5.36281 6.2755 5.40771 6.2654 5.45291 6.2675C5.49801 6.2697 5.54181 6.2841 5.57941 6.3091L10.1909 9.3836V6.5171C10.1909 6.4719 10.2032 6.4275 10.2265 6.3888C10.2497 6.35 10.2831 6.3182 10.3229 6.2969C10.3628 6.2755 10.4077 6.2654 10.4529 6.2675C10.498 6.2697 10.5418 6.2841 10.5794 6.3091L15.8789 9.8421C15.9132 9.865 15.9412 9.8959 15.9607 9.9322C15.9801 9.9685 15.9902 10.009 15.9902 10.0501C15.9902 10.0913 15.9801 10.1318 15.9607 10.1681C15.9412 10.2044 15.9132 10.2353 15.8789 10.2581L10.5794 13.7911C10.5418 13.8162 10.498 13.8306 10.4529 13.8327C10.4077 13.8349 10.3628 13.8248 10.3229 13.8034C10.2831 13.7821 10.2497 13.7503 10.2265 13.7115C10.2032 13.6727 10.1909 13.6284 10.1909 13.5831V10.7166Z" fill="white"/>
</g>
<defs>
<clipPath id="clip0_74_2191">
<rect width="20" height="20" fill="white" transform="matrix(-1 0 0 -1 20.1904 20.0498)"/>
</clipPath>
</defs>
</svg>
