<svg width="21" height="21" viewBox="0 0 21 21" fill="none" xmlns="http://www.w3.org/2000/svg">
<g id="SVG" clip-path="url(#clip0_74_2161)">
<path id="Vector" d="M20.2 10.0498C20.2 4.52696 15.7228 0.0498047 10.2 0.0498047C4.6771 0.0498047 0.199951 4.52696 0.199951 10.0498C0.199951 15.5727 4.6771 20.0498 10.2 20.0498C15.7228 20.0498 20.2 15.5727 20.2 10.0498Z" fill="#00FFA8"/>
<path id="Vector_2" d="M10.1999 9.38298L14.8115 6.30848C14.8491 6.28343 14.8929 6.26905 14.938 6.26689C14.9832 6.26473 15.0281 6.27486 15.068 6.29621C15.1079 6.31755 15.1412 6.34931 15.1644 6.3881C15.1877 6.42689 15.2 6.47126 15.2 6.51648V13.5825C15.2 13.6277 15.1877 13.6721 15.1644 13.7108C15.1412 13.7496 15.1079 13.7814 15.068 13.8027C15.0281 13.8241 14.9832 13.8342 14.938 13.8321C14.8929 13.8299 14.8491 13.8155 14.8115 13.7905L10.1999 10.716V13.5825C10.1999 13.6277 10.1876 13.6721 10.1644 13.7108C10.1411 13.7496 10.1078 13.7814 10.0679 13.8027C10.0281 13.8241 9.98316 13.8342 9.93799 13.8321C9.89283 13.8299 9.8491 13.8155 9.81145 13.7905L4.51194 10.2575C4.4777 10.2346 4.44963 10.2037 4.43021 10.1674C4.41079 10.1311 4.40063 10.0906 4.40063 10.0495C4.40063 10.0083 4.41079 9.96781 4.43021 9.93152C4.44963 9.89524 4.4777 9.86431 4.51194 9.84148L9.81145 6.30848C9.8491 6.28343 9.89283 6.26905 9.93799 6.26689C9.98316 6.26473 10.0281 6.27486 10.0679 6.29621C10.1078 6.31755 10.1411 6.34931 10.1644 6.3881C10.1876 6.42689 10.1999 6.47126 10.1999 6.51648V9.38298Z" fill="white"/>
</g>
<defs>
<clipPath id="clip0_74_2161">
<rect width="20" height="20" fill="white" transform="translate(0.199951 0.0498047)"/>
</clipPath>
</defs>
</svg>
