<svg width="21" height="21" viewBox="0 0 21 21" fill="none" xmlns="http://www.w3.org/2000/svg">
<g id="SVG">
<path id="Vector" d="M10.8356 14.9717C10.6902 14.8829 10.5072 14.8829 10.3617 14.9717L6.63292 17.2492C6.28788 17.4599 5.86006 17.149 5.95386 16.7557L6.9676 12.5055C7.00713 12.3396 6.9506 12.1656 6.82115 12.0548L3.50372 9.21308C3.19665 8.95004 3.36009 8.44707 3.76312 8.41478L8.11772 8.06589C8.28765 8.05228 8.43567 7.94474 8.50112 7.78735L10.179 3.7529C10.3343 3.37957 10.8631 3.37957 11.0183 3.7529L12.6962 7.78735C12.7617 7.94474 12.9097 8.05228 13.0796 8.06589L17.4349 8.41478C17.838 8.44706 18.0013 8.95008 17.6943 9.2131L14.3763 12.0548C14.2467 12.1656 14.1902 12.3396 14.2297 12.5055L15.2434 16.7557C15.3373 17.149 14.9094 17.4599 14.5644 17.2492L10.8356 14.9717Z" fill="white" stroke="#D8D8D8" stroke-width="1.36364"/>
</g>
</svg>
