<svg width="17" height="18" viewBox="0 0 17 18" fill="none" xmlns="http://www.w3.org/2000/svg">
<g id="SVG" clip-path="url(#clip0_74_1657)">
<path id="Vector" d="M16.5799 9.00024C16.5799 4.53019 12.9556 0.906494 8.48489 0.906494C4.01415 0.906494 0.389893 4.53019 0.389893 9.00024C0.389893 13.4703 4.01415 17.094 8.48489 17.094C12.9556 17.094 16.5799 13.4703 16.5799 9.00024Z" fill="#333333"/>
<path id="Vector_2" d="M11.482 12.7486H5.48657V11.9991C5.48657 11.5022 5.68397 11.0257 6.03533 10.6743C6.38669 10.323 6.86323 10.1256 7.36013 10.1256H9.60836C10.1053 10.1256 10.5819 10.323 10.9332 10.6743C11.2846 11.0257 11.482 11.5022 11.482 11.9991V12.7486ZM8.48426 9.37617C8.18901 9.37617 7.89666 9.31801 7.62389 9.20503C7.35111 9.09204 7.10327 8.92643 6.8945 8.71767C6.68572 8.50889 6.52013 8.26105 6.40714 7.98828C6.29415 7.7155 6.236 7.42314 6.236 7.1279C6.236 6.83265 6.29415 6.5403 6.40714 6.26753C6.52013 5.99476 6.68572 5.74691 6.8945 5.53814C7.10327 5.32937 7.35111 5.16377 7.62389 5.05078C7.89666 4.93779 8.18901 4.87964 8.48426 4.87964C9.08054 4.87964 9.65243 5.11651 10.074 5.53814C10.4956 5.95977 10.7325 6.53163 10.7325 7.1279C10.7325 7.72418 10.4956 8.29603 10.074 8.71767C9.65243 9.1393 9.08054 9.37617 8.48426 9.37617Z" fill="white"/>
</g>
<defs>
<clipPath id="clip0_74_1657">
<rect width="16.19" height="18" fill="white" transform="translate(0.389893 0.000244141)"/>
</clipPath>
</defs>
</svg>
